#!OML:ASF E:\Steps\Project 1\Capture day 1\Session 2\Subject.ASF
:FULLY-SPECIFIED
:DEGREES
49
root 16.1442 16.3337 21.1339 -154.869 -0.393504 177.682
lowerback -30.3527 -2.17067 -7.61233
upperback -1.10273 -0.889322 -0.0114197
thorax 14.7857 -1.18816 3.68737
lowerneck -5.63407 -1.53479 -1.42245
upperneck 4.40014 -2.13775 4.42077
head 2.4509 -0.931868 1.58633
rclavicle 8.44835e-015 1.15295e-014
rhumerus -36.4444 -19.7034 -78.6318
rradius 30.4801
rwrist -4.60227
rhand -11.9998 -67.5823
rfingers 7.12502
rthumb 14.0572 -262.913
lclavicle 8.44835e-015 1.15295e-014
lhumerus -30.967 8.20751 80.7248
lradius 20.4609
lwrist -4.58756
lhand -22.2473 -13.2691
lfingers 7.12502
lthumb 4.16997 16.6698
rfemur -22.5776 7.46635 18.4088
rtibia 8.68937
rfoot -19.0499 -2.96489
rtoes -18.8729
lfemur -23.3699 -8.24007 -21.9942
ltibia 8.95439
lfoot -6.98022 -3.00896
ltoes -30.6894
50
root 16.1451 16.3347 21.1339 -154.877 -0.396485 177.718
lowerback -30.3544 -2.1502 -7.55895
upperback -1.0989 -0.881297 0.00301886
thorax 14.7907 -1.18112 3.67792
lowerneck -5.63816 -1.52106 -1.49881
upperneck 4.35753 -2.11533 4.48717
head 2.43942 -0.920381 1.62231
rclavicle 2.6339e-015 -1.23246e-014
rhumerus -36.4416 -19.6015 -78.6833
rradius 30.5731
rwrist -4.65345
rhand -12.0844 -67.8522
rfingers 7.12502
rthumb 13.9757 -262.638
lclavicle 2.6339e-015 -1.23246e-014
lhumerus -30.9587 8.08211 80.8027
lradius 20.5388
lwrist -4.46473
lhand -22.2815 -13.4677
lfingers 7.12502
lthumb 4.13695 16.4719
rfemur -22.5796 7.39834 18.4755
rtibia 8.70393
rfoot -19.0173 -2.85935
rtoes -18.0948
lfemur -23.2951 -8.29331 -21.9377
ltibia 8.82992
lfoot -7.03608 -2.94583
ltoes -32.4703
51
root 16.147 16.3369 21.1343 -154.952 -0.411335 177.721
lowerback -30.2606 -2.15234 -7.53642
upperback -1.08526 -0.894783 0.0157035
thorax 14.7668 -1.18294 3.67682
lowerneck -5.6594 -1.48235 -1.56789
upperneck 4.34088 -2.05999 4.53322
head 2.43807 -0.892646 1.65181
rclavicle 8.69683e-015 -2.3059e-014
rhumerus -36.4377 -19.5602 -78.7023
rradius 30.6224
rwrist -4.59456
rhand -12.1693 -68.0454
rfingers 7.12502
rthumb 13.8939 -262.439
lclavicle 8.69683e-015 -2.3059e-014
lhumerus -30.9809 8.11389 80.8378
lradius 20.5931
lwrist -4.48801
lhand -22.3076 -13.5903
lfingers 7.12502
lthumb 4.11175 16.3497
rfemur -22.4914 7.28049 18.522
rtibia 8.68893
rfoot -19.0304 -2.73892
rtoes -18.0723
lfemur -23.1552 -8.36497 -21.9118
ltibia 8.70672
lfoot -7.0145 -2.87921
ltoes -32.6029
52
root 16.1486 16.3384 21.1373 -154.972 -0.416901 177.727
lowerback -30.179 -2.14674 -7.53133
upperback -1.10697 -0.898386 0.022064
thorax 14.7052 -1.18198 3.68135
lowerneck -5.68437 -1.49769 -1.49681
upperneck 4.41626 -2.08476 4.45151
head 2.46578 -0.905338 1.61181
rclavicle 7.37988e-015 -1.55052e-014
rhumerus -36.4567 -19.5824 -78.6902
rradius 30.6365
rwrist -4.53979
rhand -12.2611 -68.2331
rfingers 7.12502
rthumb 13.8054 -262.245
lclavicle 7.37988e-015 -1.55052e-014
lhumerus -30.963 8.03471 80.8824
lradius 20.5812
lwrist -4.44762
lhand -22.314 -13.4379
lfingers 7.12502
lthumb 4.10554 16.5023
rfemur -22.4689 7.24952 18.5398
rtibia 8.65195
rfoot -19.0509 -2.70021
rtoes -18.3355
lfemur -23.1561 -8.38205 -21.886
ltibia 8.71581
lfoot -6.95544 -2.86987
ltoes -32.7326
53
root 16.1479 16.338 21.1385 -154.96 -0.385132 177.733
lowerback -30.1805 -2.13354 -7.50807
upperback -1.11618 -0.890208 0.0151453
thorax 14.6939 -1.17674 3.66437
lowerneck -5.74714 -1.5061 -1.30182
upperneck 4.52764 -2.1047 4.22833
head 2.50737 -0.917636 1.50381
rclavicle 3.77691e-015 4.57205e-015
rhumerus -36.4433 -19.5763 -78.7116
rradius 30.625
rwrist -4.5634
rhand -12.3588 -68.4149
rfingers 7.12502
rthumb 13.7113 -262.057
lclavicle 3.77691e-015 4.57205e-015
lhumerus -30.9235 7.88527 80.9316
lradius 20.595
lwrist -4.32919
lhand -22.4769 -13.2348
lfingers 7.12502
lthumb 3.94823 16.7084
rfemur -22.4931 7.18875 18.5439
rtibia 8.65177
rfoot -19.0541 -2.67307
rtoes -18.2483
lfemur -23.162 -8.43274 -21.8819
ltibia 8.69985
lfoot -6.96256 -2.77832
ltoes -32.6387
54
root 16.1481 16.337 21.1371 -154.965 -0.303907 177.726
lowerback -30.2323 -2.12306 -7.50263
upperback -1.08764 -0.868269 -0.00230074
thorax 14.7477 -1.16784 3.65022
lowerneck -5.83513 -1.48257 -1.16869
upperneck 4.63223 -2.08023 4.08591
head 2.55287 -0.905867 1.43512
rclavicle 6.4605e-015 -4.29375e-014
rhumerus -36.3969 -19.5039 -78.7949
rradius 30.6154
rwrist -4.66234
rhand -12.4603 -68.5688
rfingers 7.12502
rthumb 13.6134 -261.896
lclavicle 6.4605e-015 -4.29375e-014
lhumerus -30.8706 7.92289 80.9133
lradius 20.6055
lwrist -4.43871
lhand -22.515 -13.2989
lfingers 7.12502
lthumb 3.91146 16.6449
rfemur -22.5054 7.21272 18.5129
rtibia 8.67238
rfoot -18.965 -2.64243
rtoes -17.7728
lfemur -23.1353 -8.43541 -21.9048
ltibia 8.67586
lfoot -7.01011 -2.68265
ltoes -32.9094
55
root 16.1498 16.3348 21.1381 -154.903 -0.207255 177.708
lowerback -30.3242 -2.0962 -7.53305
upperback -1.08402 -0.81614 -0.0180187
thorax 14.7865 -1.14927 3.66822
lowerneck -5.88434 -1.56093 -1.06458
upperneck 4.81336 -2.19285 3.96829
head 2.62193 -0.961193 1.37449
rclavicle 5.06901e-015 -1.80894e-014
rhumerus -36.4009 -19.4619 -78.8271
rradius 30.6598
rwrist -4.61146
rhand -12.5394 -68.8525
rfingers 7.12502
rthumb 13.5371 -261.608
lclavicle 5.06901e-015 -1.80894e-014
lhumerus -30.7974 7.87445 80.9342
lradius 20.6181
lwrist -4.46275
lhand -22.242 -13.225
lfingers 7.12502
lthumb 4.17513 16.7139
rfemur -22.6103 7.31275 18.4562
rtibia 8.70408
rfoot -18.9326 -2.59024
rtoes -17.5596
lfemur -23.2188 -8.31556 -21.9504
ltibia 8.63416
lfoot -6.93994 -2.68192
ltoes -33.1558
